<svg viewBox="0 0 1080 1080" fill="none" xmlns="http://www.w3.org/2000/svg">      <defs>  <filter id="filter" x="-20%" y="-20%" width="140%" height="140%" filterUnits="objectBoundingBox" primitiveUnits="userSpaceOnUse" color-interpolation-filters="linearRGB">    <feMorphology operator="dilate" radius="20 20" in="SourceAlpha" result="morphology"/>    <feFlood flood-color="#ffffff" flood-opacity="1" result="flood"/>    <feComposite in="flood" in2="morphology" operator="in" result="composite"/>    <feMerge result="merge">          <feMergeNode in="composite" result="mergeNode"/>      <feMergeNode in="SourceGraphic" result="mergeNode1"/>      </feMerge>  </filter></defs>      <g id="notion-avatar" filter="url(#filter)">        <g id="notion-avatar-face" fill="#ffffff">      <!--?xml version="1.0" encoding="UTF-8"?-->    <!-- Generator: Sketch 63.1 (92452) - https://sketch.com -->    <title>Face/ 13</title>    <desc>Created with Sketch.</desc>    <g id="Face/-13" stroke="none" stroke-width="1" fill-rule="evenodd" stroke-linecap="round" stroke-linejoin="round">        <path d="M532,379 C664.54834,379 772,486.45166 772,619 C772,642.160109 793.234546,666.244677 787.453024,688.979248 C773.583554,743.517917 772,919 608,919 C448.628533,919 373.476049,816.010833 320.189513,718.584987 C317.498129,718.859681 314.765451,719 312,719 C267.81722,719 232,683.18278 232,639 C232,599.134956 261.158843,566.080325 299.312086,560.00055 C325.599297,455.979213 419.809919,379 532,379 Z M295.858895,624.545187 L304.141105,655.454813" id="Path" stroke="#000000" stroke-width="24"/>    </g>    </g><g id="notion-avatar-nose">      <!--?xml version="1.0" encoding="UTF-8"?-->    <title>Nose/ 5</title>    <g id="Nose/-5" stroke="none" stroke-width="1" fill="none" fill-rule="evenodd" stroke-linecap="round" stroke-linejoin="round">        <path d="M673,568 C662.55102,590.836147 657.326531,613.414126 657.326531,635.733939 C657.326531,669.213657 673,686.992054 670.061224,702.552554 C668.102041,712.92622 653.081633,714.756867 625,708.044495" id="Path" stroke="#000000" stroke-width="16"/>    </g>    </g><g id="notion-avatar-mouth">      <!--?xml version="1.0" encoding="UTF-8"?-->    <title>Mouth/ 0</title>    <g id="Mouth/-0" stroke="none" stroke-width="1" fill="none" fill-rule="evenodd" stroke-linecap="round" stroke-linejoin="round">        <path d="M549,759 C576.33038,765.666667 599.663714,769 619,769 C638.336286,769 655.002953,765.666667 669,759" id="Path" stroke="#000000" stroke-width="16"/>    </g>    </g><g id="notion-avatar-eyes">      <!--?xml version="1.0" encoding="UTF-8"?-->    <title>Eyes/ 7</title>    <g id="Eyes/-7" stroke="none" stroke-width="1" fill="none" fill-rule="evenodd">        <path d="M570,516 C578.836556,516 586,526.745166 586,540 C586,553.254834 578.836556,564 570,564 C561.163444,564 554,553.254834 554,540 C554,526.745166 561.163444,516 570,516 Z M708,516 C716.836556,516 724,526.745166 724,540 C724,553.254834 716.836556,564 708,564 C699.163444,564 692,553.254834 692,540 C692,526.745166 699.163444,516 708,516 Z M568,527 C564.686292,527 562,529.686292 562,533 C562,536.313708 564.686292,539 568,539 C571.313708,539 574,536.313708 574,533 C574,529.686292 571.313708,527 568,527 Z M706,527 C702.686292,527 700,529.686292 700,533 C700,536.313708 702.686292,539 706,539 C709.313708,539 712,536.313708 712,533 C712,529.686292 709.313708,527 706,527 Z" id="Combined-Shape" fill="#000000"/>    </g>    </g><g id="notion-avatar-eyebrows">      <g id="Eyebrows/ 12"><g id="Group"><path id="Path" fill-rule="evenodd" clip-rule="evenodd" d="M681 505.316C681 505.316 698.641 492.863 706.392 490.578C714.144 488.294 738 489.316 738 489.316L755 494.913C755 494.913 730.25 494.897 716.549 497.08C702.848 499.263 681 505.316 681 505.316Z" fill="black" stroke="black" stroke-width="8" stroke-linecap="round" stroke-linejoin="round"/><path id="Path_2" fill-rule="evenodd" clip-rule="evenodd" d="M597 505.316C597 505.316 579.359 492.863 571.608 490.578C563.856 488.294 540 489.316 540 489.316L523 494.913C523 494.913 547.75 494.897 561.451 497.08C575.152 499.263 597 505.316 597 505.316Z" fill="black" stroke="black" stroke-width="8" stroke-linecap="round" stroke-linejoin="round"/></g></g>    </g><g id="notion-avatar-glasses">      <g id="Glasses/ 13"><g id="Group"><path id="Path" d="M594.966 482.529H684.378" stroke="black" stroke-width="8" stroke-linecap="round" stroke-linejoin="round"/><path id="Path_2" d="M593 517.765C593 517.765 615.694 501 638 501C660.306 501 682.412 517.765 682.412 517.765" stroke="black" stroke-width="8" stroke-linecap="round" stroke-linejoin="round"/><path id="Path_3" d="M510.484 517.569L293.827 555.771" stroke="black" stroke-width="16" stroke-linecap="round" stroke-linejoin="round"/><g id="Rectangle"><path id="Mask" fill-rule="evenodd" clip-rule="evenodd" d="M470.242 498.62C502.983 452.135 598.089 462.262 619.362 504.282C640.636 546.302 563.647 605 516.916 605C470.186 605 437.501 545.106 470.242 498.62Z" fill="#0C0C0C"/><mask id="mask0_0_1173" style="mask-type:alpha" maskUnits="userSpaceOnUse" x="457" y="468" width="166" height="137"><path id="Mask_2" fill-rule="evenodd" clip-rule="evenodd" d="M470.242 498.62C502.983 452.135 598.089 462.262 619.362 504.282C640.636 546.302 563.647 605 516.916 605C470.186 605 437.501 545.106 470.242 498.62Z" fill="white"/></mask><g mask="url(#mask0_0_1173)"><rect id="Rectangle_2" x="549.624" y="439.067" width="210" height="28" transform="rotate(60 549.624 439.067)" fill="white"/></g></g><g id="Rectangle_3"><path id="Mask_3" fill-rule="evenodd" clip-rule="evenodd" d="M804.758 498.62C772.017 452.135 676.911 462.262 655.638 504.282C634.364 546.302 711.353 605 758.084 605C804.814 605 837.499 545.106 804.758 498.62Z" fill="#0C0C0C"/><mask id="mask1_0_1173" style="mask-type:alpha" maskUnits="userSpaceOnUse" x="652" y="468" width="166" height="137"><path id="Mask_4" fill-rule="evenodd" clip-rule="evenodd" d="M804.758 498.62C772.017 452.135 676.911 462.262 655.638 504.282C634.364 546.302 711.353 605 758.084 605C804.814 605 837.499 545.106 804.758 498.62Z" fill="white"/></mask><g mask="url(#mask1_0_1173)"><rect id="Rectangle_4" x="739.624" y="439.067" width="210" height="28" transform="rotate(60 739.624 439.067)" fill="white"/></g></g><path id="Path_4" fill-rule="evenodd" clip-rule="evenodd" d="M470.242 498.62C502.983 452.135 598.089 462.262 619.362 504.282C640.636 546.302 563.647 605 516.916 605C470.186 605 437.501 545.106 470.242 498.62Z" stroke="black" stroke-width="8" stroke-linecap="round" stroke-linejoin="round"/><path id="Path_5" fill-rule="evenodd" clip-rule="evenodd" d="M804.758 498.62C772.017 452.135 676.911 462.262 655.638 504.282C634.364 546.302 711.353 605 758.084 605C804.814 605 837.499 545.106 804.758 498.62Z" stroke="black" stroke-width="8" stroke-linecap="round" stroke-linejoin="round"/></g></g>    </g><g id="notion-avatar-hair">      <g id="Hairstyle/ 31"><path id="Path" fill-rule="evenodd" clip-rule="evenodd" d="M304.306 565.52C337.243 585.751 365.511 672.712 365.511 672.712C365.511 672.712 365.252 601.808 393 560C420.749 518.192 460.001 483 460.001 483C460.001 483 453.001 467 444.44 451.95C435.88 436.899 399.899 409.29 399.899 409.29C399.899 409.29 582.534 466.231 642.612 454.357C702.69 442.484 749.621 420.302 780.515 364.949C811.409 309.595 816.59 213.248 816.59 213.248C816.59 213.248 733.414 266.466 695.832 260.494C658.25 254.523 639.768 238.18 619.952 207.908C612.261 196.159 593.16 162.47 593.16 162.47C593.16 162.47 586.419 185.366 586.817 192.079C588.205 215.501 593.616 219.059 585.681 214.893C569.218 206.25 551.73 197.141 533.324 187.407C519.054 179.861 497.63 150.783 497.63 150.783C497.63 150.783 491.035 170.889 493.648 185.455C495.292 194.615 510.821 224.307 510.821 224.307C510.821 224.307 485.652 199.471 442.094 198.945C416.855 198.641 380.949 210.817 333.977 222.605C326.905 224.38 311.824 221.908 311.824 221.908L354.267 245.388C354.267 245.388 274.534 271.192 255.789 297.105C249.4 305.936 240.401 317.865 232.782 334.906C225.497 351.2 211.516 400.336 211.516 400.336C211.516 400.336 219.8 377.186 237.879 360.988C255.958 344.789 295.534 342.016 295.534 342.016C295.534 342.016 241.217 374.824 232.109 410.494C223.002 446.165 251.335 572.688 251.335 572.688C251.335 572.688 271.368 545.289 304.306 565.52Z" fill="black" stroke="black" stroke-width="12" stroke-linecap="round" stroke-linejoin="round"/></g>    </g><g id="notion-avatar-accessories">      <!--?xml version="1.0" encoding="UTF-8"?-->    <title>Accessories/ 0</title>    <g id="Accessories/-0" stroke="none" stroke-width="1" fill="none" fill-rule="evenodd"/>    </g><g id="notion-avatar-details">      <!--?xml version="1.0" encoding="UTF-8"?-->    <title>Details/ 0</title>    <g id="Details/-0" stroke="none" stroke-width="1" fill="none" fill-rule="evenodd"/>    </g><g id="notion-avatar-beard">      <g id="Beard/ 13"><g id="Shape"><path fill-rule="evenodd" clip-rule="evenodd" d="M369.784 644C393.129 725.816 419.796 770.483 449.784 778C494.767 789.275 498.784 731 532.784 712C566.784 693 623.784 715 659.784 715C695.784 715 758.703 700.707 771.784 705C784.866 709.293 783.106 837.47 724.784 899C693.941 926.615 681.399 926.571 623.784 927C566.17 927.429 482.098 914.714 411.784 857C364.909 818.524 347.575 747.524 359.784 644H369.784ZM550.784 724C533.514 736.44 501.515 784.317 518.784 798C536.054 811.683 595.517 796 633.784 796C672.052 796 713.028 804.22 718.784 798C724.541 791.78 721.784 743 705.784 731C689.784 719 656.694 736 638.784 736C620.875 736 568.054 711.56 550.784 724Z" fill="black"/><path d="M369.784 644L375.554 642.354C374.819 639.777 372.464 638 369.784 638V644ZM449.784 778L448.325 783.82L449.784 778ZM724.784 899L728.786 903.47C728.909 903.361 729.026 903.247 729.139 903.128L724.784 899ZM411.784 857L407.977 861.638L411.784 857ZM359.784 644V638C356.742 638 354.182 640.276 353.826 643.297L359.784 644ZM638.784 736V730V736ZM364.014 645.646C375.752 686.782 388.426 718.965 402.141 741.938C415.766 764.76 431.014 779.481 448.325 783.82L451.243 772.18C438.566 769.002 425.486 757.631 412.445 735.787C399.493 714.093 387.162 683.035 375.554 642.354L364.014 645.646ZM448.325 783.82C460.941 786.982 471.245 785.335 479.948 780.313C488.362 775.457 494.762 767.729 500.318 759.795C503.115 755.8 505.824 751.561 508.477 747.469C511.16 743.33 513.814 739.294 516.629 735.471C522.274 727.806 528.294 721.383 535.711 717.238L529.857 706.762C520.275 712.117 513.043 720.104 506.966 728.356C503.92 732.493 501.096 736.793 498.407 740.942C495.687 745.138 493.129 749.14 490.488 752.912C485.167 760.512 480.002 766.426 473.95 769.92C468.185 773.246 461.119 774.656 451.243 772.18L448.325 783.82ZM535.711 717.238C550.806 708.802 571.717 709.194 594.726 712.32C606.139 713.871 617.434 715.984 628.578 717.783C639.54 719.552 650.264 721 659.784 721V709C651.304 709 641.403 707.698 630.49 705.936C619.76 704.204 607.929 702.004 596.342 700.43C573.352 697.306 548.762 696.198 529.857 706.762L535.711 717.238ZM659.784 721C678.302 721 703.533 717.343 725.204 714.333C736.165 712.811 746.231 711.449 754.358 710.728C758.42 710.368 761.88 710.179 764.653 710.197C767.563 710.216 769.203 710.468 769.913 710.701L773.655 699.299C771.096 698.459 767.907 698.218 764.732 698.197C761.419 698.176 757.536 698.399 753.298 698.775C744.823 699.527 734.457 700.933 723.553 702.447C701.495 705.511 677.266 709 659.784 709V721ZM769.913 710.701C768.666 710.292 768.461 709.529 768.866 710.225C769.19 710.784 769.647 711.855 770.12 713.609C771.058 717.082 771.8 722.222 772.17 728.808C772.907 741.911 772.124 759.84 769.128 779.638C763.105 819.439 748.347 865.419 720.43 894.872L729.139 903.128C759.543 871.051 774.827 822.177 780.993 781.434C784.092 760.96 784.942 742.194 784.151 728.134C783.758 721.138 782.947 715.079 781.705 710.48C781.089 708.198 780.299 706.016 779.24 704.195C778.262 702.512 776.537 700.245 773.655 699.299L769.913 710.701ZM720.782 894.53C705.688 908.044 695.712 914.212 682.889 917.369C669.549 920.653 652.868 920.783 623.74 921L623.829 933C652.315 932.788 670.713 932.725 685.758 929.021C701.321 925.189 713.038 917.571 728.786 903.47L720.782 894.53ZM623.74 921C566.901 921.424 484.417 908.856 415.591 852.362L407.977 861.638C479.778 920.573 565.438 933.435 623.829 933L623.74 921ZM415.591 852.362C371.172 815.902 353.6 747.662 365.743 644.703L353.826 643.297C341.55 747.385 358.645 821.145 407.977 861.638L415.591 852.362ZM359.784 650H369.784V638H359.784V650ZM547.277 719.132C537.641 726.073 524.784 742.006 516.52 757.744C512.364 765.658 509.088 774.041 508.118 781.656C507.155 789.221 508.365 797.4 515.058 802.703L522.51 793.297C520.568 791.759 519.303 788.821 520.022 783.172C520.735 777.574 523.3 770.644 527.144 763.323C534.88 748.592 546.658 734.367 554.291 728.868L547.277 719.132ZM515.058 802.703C520.925 807.351 529.516 808.986 538.341 809.452C547.422 809.931 558.047 809.212 569.015 808.101C591.4 805.832 615.046 802 633.784 802V790C614.255 790 589.035 794.01 567.805 796.162C556.965 797.26 547.094 797.897 538.973 797.468C530.596 797.026 525.278 795.49 522.51 793.297L515.058 802.703ZM633.784 802C652.602 802 672.053 804.02 687.991 805.313C695.846 805.95 702.985 806.421 708.575 806.31C711.362 806.255 714.013 806.053 716.294 805.569C718.37 805.129 721.171 804.255 723.188 802.076L714.381 793.924C714.959 793.3 715.22 793.53 713.803 793.83C712.592 794.088 710.798 794.264 708.337 794.313C703.429 794.41 696.852 793.992 688.961 793.352C673.405 792.09 653.234 790 633.784 790V802ZM723.188 802.076C725.045 800.068 725.902 797.28 726.385 795.159C726.93 792.763 727.262 789.937 727.423 786.915C727.747 780.849 727.416 773.411 726.388 765.858C725.361 758.314 723.609 750.426 720.983 743.523C718.417 736.777 714.734 730.212 709.384 726.2L702.184 735.8C704.835 737.788 707.496 741.821 709.767 747.79C711.978 753.603 713.555 760.549 714.498 767.477C715.439 774.396 715.718 781.07 715.44 786.275C715.3 788.888 715.028 790.987 714.684 792.496C714.278 794.28 713.962 794.377 714.381 793.924L723.188 802.076ZM709.384 726.2C704.006 722.166 697.527 720.825 691.184 720.72C684.849 720.614 678.112 721.733 671.712 723.14C665.458 724.515 658.677 726.375 653.161 727.696C647.301 729.1 642.485 730 638.784 730V742C644.038 742 650.074 740.775 655.956 739.366C662.182 737.875 668.031 736.235 674.288 734.86C680.399 733.517 686.055 732.636 690.984 732.718C695.905 732.8 699.563 733.834 702.184 735.8L709.384 726.2ZM638.784 730C635.24 730 629.355 728.719 621.476 726.584C614.067 724.577 604.792 721.789 596.047 719.526C587.16 717.227 577.948 715.224 569.725 714.642C561.755 714.078 553.384 714.733 547.277 719.132L554.291 728.868C556.819 727.047 561.527 726.092 568.878 726.612C575.975 727.114 584.326 728.889 593.041 731.144C601.899 733.436 610.267 735.98 618.338 738.167C625.94 740.226 633.374 742 638.784 742V730Z" fill="black"/></g></g>    </g>      </g>      </svg>